<svg width="20" height="20" viewBox="0 0 20 20" fill="none" xmlns="http://www.w3.org/2000/svg">
<path d="M12.4087 14.9062C12.4989 15.1704 12.4205 15.3643 12.2702 15.5688C11.8413 16.1525 11.4338 16.752 11.0007 17.3697C10.6884 16.925 10.3858 16.494 10.0831 16.0631C9.97997 15.9163 9.88627 15.7613 9.77092 15.6248C9.58961 15.4101 9.53114 15.1912 9.58333 14.901C9.81366 13.6199 10.0187 12.3342 10.2306 11.0498C10.3639 10.2423 10.4976 9.43481 10.6211 8.62578C10.6537 8.41223 10.5809 8.31399 10.9345 8.31822C11.0577 8.31822 10.9961 8.30165 11.1083 8.31822C11.3532 8.3182 11.3414 8.38933 11.3657 8.53973C11.6039 10.0173 11.8426 11.4948 12.0841 12.9718C12.1885 13.6104 12.2999 14.2479 12.4087 14.9062Z" fill="url(#paint1_linear_110_842)"/>
<path d="M12.3246 7.60652C12.0158 7.30579 11.7187 7.0168 11.3787 6.68608C12.0543 6.56332 12.6734 6.45081 13.3314 6.33127C13.0863 6.87504 12.8578 7.38197 12.6084 7.9353C12.5088 7.8192 12.4226 7.71875 12.3246 7.60652Z" fill="url(#paint2_linear_110_842)"/>
<path d="M10.4012 6.87512C10.0543 7.21553 9.71933 7.54422 9.37092 7.88611C9.14512 7.38723 8.9176 6.88454 8.66857 6.3343C9.32413 6.45148 9.94333 6.5622 10.5625 6.6729C10.5785 6.69459 10.6107 6.679 10.6266 6.7007C10.5609 6.7425 10.4789 6.82161 10.4012 6.87512Z" fill="url(#paint3_linear_110_842)"/>
<path d="M11.2492 7.08265C11.2995 7.13369 11.338 7.17266 11.3764 7.21156C11.588 7.4253 11.6118 7.61513 11.4659 7.86279C11.4306 7.92267 11.3821 7.92347 11.3272 7.9235C11.1865 7.92354 11.0457 7.9235 10.9049 7.9235C10.521 7.9235 10.4715 7.93227 10.405 7.55044C10.405 7.50238 10.4173 7.43961 10.4606 7.3744C10.6225 7.21609 10.7813 7.05454 10.9385 6.89161C10.993 6.83513 11.0292 6.85623 11.0724 6.90395C11.1247 6.96185 11.1821 7.01522 11.2492 7.08265Z" fill="url(#paint4_linear_110_842)"/>
<path fill-rule="evenodd" clip-rule="evenodd" d="M11 4.79984C7.2129 4.79984 4.14286 7.86989 4.14286 11.657C4.14286 15.4441 7.2129 18.5141 11 18.5141C14.7871 18.5141 17.8571 15.4441 17.8571 11.657C17.8571 7.86989 14.7871 4.79984 11 4.79984ZM3 11.657C3 7.23871 6.58172 3.65698 11 3.65698C15.4183 3.65698 19 7.23871 19 11.657C19 16.0753 15.4183 19.657 11 19.657C6.58172 19.657 3 16.0753 3 11.657Z" fill="url(#paint5_linear_110_842)"/>
<defs>
<linearGradient id="paint1_linear_110_842" x1="6.76" y1="24.157" x2="24.1502" y2="15.6551" gradientUnits="userSpaceOnUse">
<stop stop-color="#2D2DE3"/>
<stop offset="1" stop-color="#8718DE"/>
</linearGradient>
<linearGradient id="paint2_linear_110_842" x1="6.76" y1="24.157" x2="24.1502" y2="15.6551" gradientUnits="userSpaceOnUse">
<stop stop-color="#2D2DE3"/>
<stop offset="1" stop-color="#8718DE"/>
</linearGradient>
<linearGradient id="paint3_linear_110_842" x1="6.76" y1="24.157" x2="24.1502" y2="15.6551" gradientUnits="userSpaceOnUse">
<stop stop-color="#2D2DE3"/>
<stop offset="1" stop-color="#8718DE"/>
</linearGradient>
<linearGradient id="paint4_linear_110_842" x1="6.76" y1="24.157" x2="24.1502" y2="15.6551" gradientUnits="userSpaceOnUse">
<stop stop-color="#2D2DE3"/>
<stop offset="1" stop-color="#8718DE"/>
</linearGradient>
<linearGradient id="paint5_linear_110_842" x1="6.76" y1="24.157" x2="24.1502" y2="15.6551" gradientUnits="userSpaceOnUse">
<stop stop-color="#2D2DE3"/>
<stop offset="1" stop-color="#8718DE"/>
</linearGradient>
</defs>
</svg>
