<?xml version="1.0" encoding="UTF-8"?>
<svg version="1.1" viewBox="0 0 1806 2048" width="3612" height="4096" xmlns="http://www.w3.org/2000/svg">
<path transform="translate(930,309)" d="m0 0h401l21 3 16 4 15 5 21 10 11 7 11 8 14 12 11 11 10 13 10 15 8 15 5 13 5 15 4 21 1 13v24l-2 20-4 16-6 18-11 22-10 15-9 11-12 13-14 12-13 9-15 9-20 8-16 5-14 3-8 1-380 1-18 2-20 4-17 5-23 11-11 7-14 11-12 12-10 11-11 17-11 23-6 20-3 15-2 18v24l10-1 24-4 34-4 23-1h266l19 2 24 7 16 6 18 10 12 8 14 12 5 4v2l3 1 7 8 10 12 10 15 10 19 8 24 3 14 2 16v32l-3 22-7 23-6 14-9 16-10 14-9 11-14 14-13 10-19 12-20 9-22 7-26 4-230 1-26 4-21 7-21 10-10 7-11 9-8 7-7 8-8 10-9 15-7 15-4 11-5 22-1 9-1 264-3 22-3 14-5 15-9 20-11 18-13 16-17 17-16 12-17 10-12 6-20 7-16 4-19 3-8 1h-15l-29-3-16-4-17-6-17-8-10-6-13-9-11-9-15-15-10-13-7-10-6-11-8-18-7-21-4-20-1-6-1-16v-709l1-30 3-39 6-41 8-37 6-24 12-36 10-26 12-27 14-28 16-27 10-16 12-17 8-11 10-13 9-11 9-10 7-8 12-13 13-13 11-9 15-13 16-12 16-11 21-13 24-13 27-13 17-7 33-11 21-6 32-7 15-3 25-3 13-1z" fill="#2A814A"/>
<path transform="translate(930,309)" d="m0 0h401l21 3 16 4 15 5 21 10 11 7 11 8 14 12 11 11 10 13 10 15 8 15 5 13 5 15 4 21 1 13v24l-2 20-4 16-6 18-11 22-10 15-9 11-12 13-14 12-13 9-15 9-20 8-16 5-14 3-8 1-380 1-18 2-11 1 4-1v-2l-110 1-42 3-39 5-35 6-34 8-26 8-22 8-28 13-24 13-21 14-16 12-14 12-10 10-5 4-7 8-12 14-13 18-12 19-10 19-15 33-1 349h-1l-1-61v-318l1-30 3-39 6-41 8-37 6-24 12-36 10-26 12-27 14-28 16-27 10-16 12-17 8-11 10-13 9-11 9-10 7-8 12-13 13-13 11-9 15-13 16-12 16-11 21-13 24-13 27-13 17-7 33-11 21-6 32-7 15-3 25-3 13-1z" fill="#ABD672"/>
<path transform="translate(1036,832)" d="m0 0h121l21 1 24 7 16 6 18 10 12 8 14 12 5 4v2l3 1 7 8 10 12 10 15 10 19 8 24 3 14 2 16v32l-3 22-7 23-6 14-9 16-10 14-9 11-14 14-13 10-19 12-20 9-22 7-26 4-230 1-26 4-21 7-21 10-10 7-11 9-8 7-7 8-8 10-9 15-7 15-4 11-5 22h-2l-1-14v-51l2-31 4-35 6-36 6-27 9-31 8-23 10-25 8-18 10-20 11-19 13-20 11-15 13-16 7-8 15-16 12-11 13-11 18-13 18-11 19-10z" fill="#185F3E"/>
<path transform="translate(825,661)" d="m0 0h110v2l-16 5-14 4-23 11-11 7-14 11-12 12-10 11-11 17-11 23-6 20-3 15-2 18v24l4 2-16 3-29 8-27 9-31 13-26 13-20 12-21 14-11 8-13 10-11 9-14 12-17 16-12 12-7 8-12 14-13 17-13 18-12 19-10 17-14 27-12 28-10 28-7 27-5 6-1-2h-2l-1-3v-297l13-28 8-17 10-17 11-16 10-13 11-13 10-11 8-7 8-8 14-11 13-10 17-11 16-9 21-11 28-12 31-10 32-8 31-6 35-5 28-3z" fill="#72AA4D"/>
<path transform="translate(614,436)" d="m0 0h1l-1 9-4 25-1 10v35l3 24 6 26 8 26 9 21 10 20 13 21 13 18 8 11-4 2-26 8-22 8-28 13-24 13-21 14-16 12-14 12-10 10-5 4-7 8-12 14-13 18-12 19-10 19-15 33-1 349h-1l-1-61v-318l1-30 3-39 6-41 8-37 6-24 12-36 10-26 12-27 14-28 16-27 10-16 12-17 8-11 10-13 9-11 10-11 8-7z" fill="#97C66D"/>
<path transform="translate(1036,832)" d="m0 0h92l-3 2-9 3-14 7-18 10-24 15-18 13-10 8-11 9-16 15-18 18-7 8-11 13-10 13-12 16-10 15-17 28-14 26-13 29-11 28-10 30-13 52-2 16-8 6-14 12-7 8-8 10-9 15-7 15-4 11-5 22h-2l-1-14v-51l2-31 4-35 6-36 6-27 9-31 8-23 10-25 8-18 10-20 11-19 13-20 11-15 13-16 7-8 15-16 12-11 13-11 18-13 18-11 19-10z" fill="#0D452D"/>
<path transform="translate(800,805)" d="m0 0 2 1v35l4 2-16 3-29 8-27 9-31 13-26 13-20 12-21 14-11 8-13 10-11 9-14 12-17 16-12 12-7 8-12 14-13 17-13 18-12 19-10 17-14 27-12 28-10 28-7 27-5 6-1-2h-2l-1-3v-82l4 5 14-34 11-24 10-18 14-23 10-15 10-14 13-16 9-11 8-8 7-8 18-18 11-9 11-10 20-15 30-20 21-12 21-11 30-13 28-10 29-8 26-6z" fill="#598F3F"/>
<path transform="translate(921,659)" d="m0 0h24l-1 2h-2v2l-11 1 4-1v-2h-105v-1z" fill="#97C66C"/>
<path transform="translate(1298,1086)" d="m0 0 2 1-2 6-7 11-2-4 2-5 4-6z" fill="#2F6840"/>
<path transform="translate(934,659)" d="m0 0h11l-1 2h-2v2l-11 1 4-1v-2l-2-1z" fill="#9DCA70"/>
<path transform="translate(1298,1086)" d="m0 0 2 1-2 6-3 3v-8z" fill="#4B8051"/>
</svg>
