<svg width="320" height="98" viewBox="0 0 320 98" fill="none" xmlns="http://www.w3.org/2000/svg">
<g clip-path="url(#clip0_3_30)">
<path d="M66.8044 97.1074C66.5289 97.1074 66.2534 96.9697 65.978 96.8319C65.5647 96.5565 65.427 96.1432 65.427 95.73V88.1543C65.427 83.0578 62.8099 78.2369 58.5399 75.4821C57.989 75.2066 57.8512 74.5179 57.989 73.9669C58.1267 73.416 58.5399 73.0027 59.2286 72.865C66.9421 72.0386 72.865 65.5647 72.865 57.8512V53.3058C72.865 48.0716 70.2479 43.3884 65.8402 40.4959C65.2893 40.0826 65.0138 39.3939 65.2893 38.843C65.427 38.5675 65.427 38.292 65.427 37.8788V22.1763C65.427 21.3499 65.1515 20.6612 64.6005 20.1102C64.0496 19.5592 63.2231 19.2837 62.5344 19.2837C60.8815 19.2837 59.5041 20.6612 59.5041 22.314V36.7769C59.5041 37.1901 59.3664 37.4656 59.0909 37.741C58.8154 38.0165 58.4022 38.1543 57.989 38.1543C57.8512 38.1543 57.7135 38.1543 57.7135 38.1543H42.562C42.4242 38.1543 42.2865 38.1543 42.2865 38.1543C41.8733 38.1543 41.4601 38.0165 41.1846 37.741C40.9091 37.4656 40.7713 37.0523 40.7713 36.7769V22.1763C40.7713 21.3499 40.4959 20.6612 39.9449 20.1102C39.3939 19.5592 38.5675 19.2837 37.8788 19.2837C36.2259 19.2837 34.8485 20.6612 34.8485 22.314V37.8788C34.8485 38.292 34.8485 38.5675 34.9862 38.843C35.2617 39.3939 34.9862 40.2204 34.4353 40.4959C30.0275 43.2507 27.4105 48.0716 27.4105 53.3058V57.8512C27.4105 65.7025 33.3333 72.1763 41.0468 72.865C41.5978 72.865 42.1488 73.2782 42.2865 73.9669C42.4242 74.5179 42.1488 75.0689 41.7355 75.4821C37.4656 78.2369 34.8485 83.0578 34.8485 88.1543V95.73C34.8485 96.1432 34.573 96.5565 34.2975 96.8319C33.8843 97.1074 33.4711 97.1074 33.0578 96.9697C13.0854 89.8072 0 70.9366 0 50C0 22.4518 22.4518 0 50 0C77.5482 0 100 22.4518 100 50C100 70.9366 86.7769 89.8072 67.2176 96.9697C67.0799 97.1074 66.9421 97.1074 66.8044 97.1074ZM50 2.75482C23.9669 2.75482 2.75482 23.9669 2.75482 50C2.75482 69.146 14.3251 86.3636 31.9559 93.6639V88.1543C31.9559 83.1956 34.022 78.5124 37.6033 75.0689C30.0275 72.865 24.6556 65.978 24.6556 57.8512V53.3058C24.6556 47.5207 27.4105 42.1488 32.0937 38.843C32.0937 38.5675 32.0937 38.292 32.0937 38.0165V22.1763C32.0937 19.0083 34.7107 16.3912 37.8788 16.3912C39.3939 16.3912 40.9091 16.9421 41.8733 18.0441C42.9752 19.146 43.5262 20.5234 43.5262 22.0386V35.124H56.887V22.0386C56.887 18.8705 59.5041 16.2534 62.6722 16.2534C64.1873 16.2534 65.7025 16.8044 66.6667 17.9063C67.7686 19.0083 68.3196 20.3857 68.3196 21.9008V37.4656C68.3196 37.741 68.3196 38.0165 68.3196 38.292C73.0027 41.5978 75.7576 46.9697 75.7576 52.7548V57.3003C75.7576 65.427 70.3857 72.4518 62.8099 74.5179C66.3912 77.8237 68.4573 82.5069 68.4573 87.6033V93.1129C85.6749 86.3636 97.2452 69.146 97.2452 50C97.2452 23.9669 76.0331 2.75482 50 2.75482Z" fill="white"/>
<path d="M134.012 41C134.202 41 134.369 41.0714 134.512 41.2141C134.654 41.3568 134.726 41.5234 134.726 41.7137V55.3758C134.726 55.5661 134.654 55.7326 134.512 55.8754C134.369 56.0181 134.202 56.0895 134.012 56.0895H132.462C132.258 56.0895 132.089 56.0181 131.953 55.8754C131.817 55.7326 131.749 55.5661 131.749 55.3758V46.159L127.976 51.0121C127.827 51.1888 127.636 51.2772 127.405 51.2772C127.297 51.2772 127.188 51.2534 127.079 51.2058C126.97 51.1582 126.889 51.0868 126.834 50.9917L120.146 42.1419C120.065 42.0467 120.017 41.9278 120.003 41.7851C119.99 41.6423 120.017 41.5132 120.085 41.3976C120.153 41.2821 120.241 41.1869 120.35 41.1122C120.459 41.0374 120.581 41 120.717 41H122.512C122.743 41 122.933 41.0952 123.082 41.2855L127.405 46.995L131.626 41.2855C131.776 41.0952 131.973 41 132.218 41H134.012V41ZM122.267 50.8897C122.457 50.8897 122.624 50.9577 122.766 51.0936C122.909 51.2296 122.981 51.3995 122.981 51.6034V55.3758C122.981 55.5661 122.909 55.7326 122.766 55.8754C122.624 56.0181 122.457 56.0895 122.267 56.0895H120.717C120.527 56.0895 120.36 56.0181 120.218 55.8754C120.075 55.7326 120.003 55.5661 120.003 55.3758V51.6034C120.003 51.3995 120.075 51.2296 120.218 51.0936C120.36 50.9577 120.527 50.8897 120.717 50.8897H122.267ZM140.272 41C140.463 41 140.629 41.0714 140.772 41.2141C140.915 41.3568 140.986 41.5234 140.986 41.7137V55.2534C140.986 55.4437 140.915 55.6103 140.772 55.753C140.629 55.8957 140.463 55.9671 140.272 55.9671H138.743C138.553 55.9671 138.386 55.8957 138.243 55.753C138.101 55.6103 138.029 55.4437 138.029 55.2534V41.7137C138.029 41.5234 138.101 41.3568 138.243 41.2141C138.386 41.0714 138.553 41 138.743 41H140.272V41ZM158.257 47.2397C158.461 47.2397 158.634 47.3111 158.777 47.4538C158.92 47.5965 158.991 47.7699 158.991 47.9738V49.4827C158.991 49.673 158.92 49.8396 158.777 49.9823C158.634 50.125 158.461 50.1964 158.257 50.1964H151.549V55.4166C151.549 55.6069 151.481 55.7734 151.345 55.9161C151.209 56.0589 151.039 56.1302 150.835 56.1302H149.285C149.095 56.1302 148.928 56.0589 148.786 55.9161C148.643 55.7734 148.571 55.6069 148.571 55.4166V47.9738C148.571 47.7699 148.643 47.5965 148.786 47.4538C148.928 47.3111 149.095 47.2397 149.285 47.2397H158.257ZM159.175 41C159.365 41 159.532 41.0714 159.674 41.2141C159.817 41.3568 159.889 41.5234 159.889 41.7137V43.2022C159.889 43.4062 159.817 43.5795 159.674 43.7222C159.532 43.865 159.365 43.9363 159.175 43.9363H149.285C149.095 43.9363 148.928 43.865 148.786 43.7222C148.643 43.5795 148.571 43.4062 148.571 43.2022V41.7137C148.571 41.5234 148.643 41.3568 148.786 41.2141C148.928 41.0714 149.095 41 149.285 41H159.175ZM168.759 41C170.988 41 172.817 41.7477 174.244 43.243C175.644 44.7112 176.344 46.5124 176.344 48.6467C176.344 50.781 175.644 52.5822 174.244 54.0503C172.817 55.5457 170.988 56.2934 168.759 56.2934C166.529 56.2934 164.701 55.5457 163.273 54.0503C161.873 52.5822 161.173 50.781 161.173 48.6467C161.173 46.5124 161.873 44.7112 163.273 43.243C164.701 41.7477 166.529 41 168.759 41ZM168.759 53.3774C170.159 53.3774 171.287 52.9288 172.144 52.0316C172.973 51.1616 173.387 50.0367 173.387 48.6569C173.387 47.2771 172.966 46.142 172.123 45.2516C171.28 44.3611 170.159 43.9159 168.759 43.9159C167.358 43.9159 166.237 44.3611 165.394 45.2516C164.551 46.142 164.13 47.2771 164.13 48.6569C164.13 50.0367 164.545 51.1616 165.374 52.0316C166.23 52.9288 167.358 53.3774 168.759 53.3774ZM189.129 41C189.32 41 189.483 41.0714 189.619 41.2141C189.755 41.3568 189.823 41.5234 189.823 41.7137V43.1819C189.823 43.3722 189.755 43.5387 189.619 43.6814C189.483 43.8242 189.32 43.8955 189.129 43.8955H185.112V55.2534C185.112 55.4437 185.041 55.6103 184.898 55.753C184.756 55.8957 184.589 55.9671 184.399 55.9671H182.869C182.665 55.9671 182.496 55.8957 182.36 55.753C182.224 55.6103 182.156 55.4437 182.156 55.2534V43.8955H178.139C177.948 43.8955 177.782 43.8242 177.639 43.6814C177.496 43.5387 177.425 43.3722 177.425 43.1819V41.7137C177.425 41.5234 177.496 41.3568 177.639 41.2141C177.782 41.0714 177.948 41 178.139 41H189.129V41ZM198.489 41C200.718 41 202.547 41.7477 203.974 43.243C205.374 44.7112 206.075 46.5124 206.075 48.6467C206.075 50.781 205.374 52.5822 203.974 54.0503C202.547 55.5457 200.718 56.2934 198.489 56.2934C196.26 56.2934 194.431 55.5457 193.004 54.0503C191.604 52.5822 190.904 50.781 190.904 48.6467C190.904 46.5124 191.604 44.7112 193.004 43.243C194.431 41.7477 196.26 41 198.489 41ZM198.489 53.3774C199.889 53.3774 201.018 52.9288 201.874 52.0316C202.703 51.1616 203.118 50.0367 203.118 48.6569C203.118 47.2771 202.696 46.142 201.854 45.2516C201.011 44.3611 199.889 43.9159 198.489 43.9159C197.089 43.9159 195.967 44.3611 195.124 45.2516C194.282 46.142 193.86 47.2771 193.86 48.6569C193.86 50.0367 194.275 51.1616 195.104 52.0316C195.961 52.9288 197.089 53.3774 198.489 53.3774ZM221.817 41.5098C222.659 41.8632 223.4 42.3662 224.039 43.0187C225.453 44.4597 226.16 46.2813 226.16 48.4836C226.16 50.6858 225.453 52.5074 224.039 53.9484C223.4 54.6009 222.659 55.1039 221.817 55.4573C221.001 55.7972 220.138 55.9671 219.227 55.9671H213.517C213.327 55.9671 213.16 55.8957 213.018 55.753C212.875 55.6103 212.804 55.4437 212.804 55.2534V41.7137C212.804 41.5234 212.875 41.3568 213.018 41.2141C213.16 41.0714 213.327 41 213.517 41H219.227C220.11 41 220.974 41.1699 221.817 41.5098V41.5098ZM215.76 43.8752V53.092H219.166C220.362 53.092 221.334 52.6536 222.082 51.7767C222.829 50.8999 223.203 49.8022 223.203 48.4836C223.203 47.1649 222.829 46.0672 222.082 45.1904C221.334 44.3136 220.362 43.8752 219.166 43.8752H215.76V43.8752ZM239.292 41C239.496 41 239.666 41.0714 239.802 41.2141C239.937 41.3568 240.005 41.5234 240.005 41.7137V43.1819C240.005 43.3722 239.937 43.5387 239.802 43.6814C239.666 43.8242 239.496 43.8955 239.292 43.8955H231.584V47.0154H238.395C238.598 47.0154 238.768 47.0868 238.904 47.2295C239.04 47.3722 239.108 47.5388 239.108 47.7291V49.2176C239.108 49.408 239.04 49.5745 238.904 49.7172C238.768 49.86 238.598 49.9313 238.395 49.9313H231.584V53.0716H239.292C239.496 53.0716 239.666 53.1429 239.802 53.2857C239.937 53.4284 240.005 53.5949 240.005 53.7853V55.2534C240.005 55.4437 239.937 55.6103 239.802 55.753C239.666 55.8957 239.496 55.9671 239.292 55.9671H229.341C229.151 55.9671 228.984 55.8957 228.841 55.753C228.699 55.6103 228.627 55.4437 228.627 55.2534V41.7137C228.627 41.5234 228.699 41.3568 228.841 41.2141C228.984 41.0714 229.151 41 229.341 41H239.292V41ZM253.627 41C255.244 41 256.549 41.4656 257.542 42.3968C258.534 43.328 259.03 44.5685 259.03 46.1182C259.03 47.6679 258.541 48.905 257.562 49.8294C256.583 50.7538 255.272 51.216 253.627 51.216H249.732V55.3758C249.732 55.5661 249.661 55.7326 249.518 55.8754C249.375 56.0181 249.209 56.0895 249.018 56.0895H247.469C247.278 56.0895 247.112 56.0181 246.969 55.8754C246.826 55.7326 246.755 55.5661 246.755 55.3758V49.0545C246.755 48.8642 246.826 48.6977 246.969 48.5549C247.112 48.4122 247.278 48.3408 247.469 48.3408H253.504C254.415 48.3408 255.068 48.1437 255.462 47.7495C255.856 47.396 256.053 46.8591 256.053 46.1386C256.053 45.4181 255.849 44.8641 255.442 44.4767C255.034 44.0893 254.388 43.8955 253.504 43.8955H247.469C247.278 43.8955 247.112 43.8242 246.969 43.6814C246.826 43.5387 246.755 43.3722 246.755 43.1819V41.7137C246.755 41.5234 246.826 41.3568 246.969 41.2141C247.112 41.0714 247.278 41 247.469 41H253.627V41ZM271.775 41C271.979 41 272.149 41.0714 272.285 41.2141C272.421 41.3568 272.489 41.5234 272.489 41.7137V43.1819C272.489 43.3722 272.421 43.5387 272.285 43.6814C272.149 43.8242 271.979 43.8955 271.775 43.8955H264.067V47.0154H270.878C271.082 47.0154 271.252 47.0868 271.387 47.2295C271.523 47.3722 271.591 47.5388 271.591 47.7291V49.2176C271.591 49.408 271.523 49.5745 271.387 49.7172C271.252 49.86 271.082 49.9313 270.878 49.9313H264.067V53.0716H271.775C271.979 53.0716 272.149 53.1429 272.285 53.2857C272.421 53.4284 272.489 53.5949 272.489 53.7853V55.2534C272.489 55.4437 272.421 55.6103 272.285 55.753C272.149 55.8957 271.979 55.9671 271.775 55.9671H261.824C261.634 55.9671 261.467 55.8957 261.324 55.753C261.182 55.6103 261.11 55.4437 261.11 55.2534V41.7137C261.11 41.5234 261.182 41.3568 261.324 41.2141C261.467 41.0714 261.634 41 261.824 41H271.775V41ZM284.56 50.1964L287.598 54.866C287.666 54.9747 287.704 55.0971 287.711 55.233C287.717 55.369 287.69 55.4913 287.629 55.6001C287.568 55.7088 287.479 55.7972 287.364 55.8652C287.248 55.9331 287.129 55.9671 287.007 55.9671H285.172C285.05 55.9671 284.934 55.9365 284.825 55.8754C284.716 55.8142 284.635 55.736 284.581 55.6409L281.522 50.7674H277.913V55.2534C277.913 55.4437 277.841 55.6103 277.699 55.753C277.556 55.8957 277.389 55.9671 277.199 55.9671H275.67C275.479 55.9671 275.313 55.8957 275.17 55.753C275.027 55.6103 274.956 55.4437 274.956 55.2534V41.7137C274.956 41.5234 275.027 41.3568 275.17 41.2141C275.313 41.0714 275.479 41 275.67 41H282.154C283.717 41 284.985 41.4452 285.957 42.3356C286.929 43.226 287.415 44.4325 287.415 45.9551C287.415 46.9338 287.201 47.7733 286.773 48.4734C286.344 49.1735 285.716 49.7002 284.886 50.0537C284.832 50.0809 284.744 50.1217 284.621 50.176L284.56 50.1964ZM277.913 43.8752V47.8922H281.889C283.058 47.8922 283.853 47.5592 284.275 46.893C284.411 46.6484 284.479 46.3357 284.479 45.9551C284.479 45.3161 284.268 44.8131 283.846 44.4461C283.384 44.0655 282.759 43.8752 281.97 43.8752H277.913V43.8752ZM300.547 41C300.751 41 300.921 41.0714 301.057 41.2141C301.193 41.3568 301.261 41.5234 301.261 41.7137V43.1819C301.261 43.3722 301.193 43.5387 301.057 43.6814C300.921 43.8242 300.751 43.8955 300.547 43.8955H293.022V47.1785H299.65C299.854 47.1785 300.023 47.2499 300.159 47.3926C300.295 47.5354 300.363 47.7019 300.363 47.8922V49.3808C300.363 49.5711 300.295 49.7376 300.159 49.8804C300.023 50.0231 299.854 50.0945 299.65 50.0945H293.022V55.2534C293.022 55.4437 292.951 55.6103 292.808 55.753C292.666 55.8957 292.499 55.9671 292.309 55.9671H290.779C290.589 55.9671 290.423 55.8957 290.28 55.753C290.137 55.6103 290.066 55.4437 290.066 55.2534V41.7137C290.066 41.5234 290.137 41.3568 290.28 41.2141C290.423 41.0714 290.589 41 290.779 41H300.547V41ZM305.645 41C305.835 41 306.001 41.0714 306.144 41.2141C306.287 41.3568 306.358 41.5234 306.358 41.7137V55.2534C306.358 55.4437 306.287 55.6103 306.144 55.753C306.001 55.8957 305.835 55.9671 305.645 55.9671H304.115C303.925 55.9671 303.758 55.8957 303.616 55.753C303.473 55.6103 303.402 55.4437 303.402 55.2534V41.7137C303.402 41.5234 303.473 41.3568 303.616 41.2141C303.758 41.0714 303.925 41 304.115 41H305.645V41ZM319.286 53.0716C319.49 53.0716 319.66 53.1429 319.796 53.2857C319.932 53.4284 320 53.5949 320 53.7853V55.2534C320 55.4437 319.932 55.6103 319.796 55.753C319.66 55.8957 319.49 55.9671 319.286 55.9671H310.375C310.185 55.9671 310.019 55.8957 309.876 55.753C309.733 55.6103 309.662 55.4437 309.662 55.2534V41.7137C309.662 41.5234 309.733 41.3568 309.876 41.2141C310.019 41.0714 310.185 41 310.375 41H311.905C312.095 41 312.262 41.0714 312.404 41.2141C312.547 41.3568 312.618 41.5234 312.618 41.7137V53.0716H319.286V53.0716Z" fill="white"/>
</g>
<defs>
<clipPath id="clip0_3_30">
<rect width="320" height="97.1074" fill="white"/>
</clipPath>
</defs>
</svg>
