<?xml version="1.0" encoding="UTF-8" standalone="no"?>
<!DOCTYPE svg PUBLIC "-//W3C//DTD SVG 1.1//EN" "http://www.w3.org/Graphics/SVG/1.1/DTD/svg11.dtd">
<svg width="100%" height="100%" viewBox="0 0 1860 380" version="1.1"
    xmlns="http://www.w3.org/2000/svg" xmlns:xlink="http://www.w3.org/1999/xlink"
    xml:space="preserve" xmlns:serif="http://www.serif.com/"
    style="fill-rule:evenodd;clip-rule:evenodd;stroke-linejoin:round;stroke-miterlimit:2;">
    <g transform="matrix(0.1,0,0,-0.1,0,380)">
        <path d="M5455,3055C4779,2975 4341,2694 4165,2227C4151,2190 4140,2153 4140,2145C4140,2132 4189,2130 4498,2130L4855,2130L4899,2190C5015,2349 5164,2438 5409,2497C5499,2518 5547,2523 5722,2527C6031,2535 6209,2508 6378,2429C6591,2330 6711,2194 6772,1985C6802,1879 6805,1653 6776,1545C6700,1252 6479,1073 6110,1003C5962,975 5583,978 5441,1009C5173,1066 4982,1182 4878,1353L4848,1400L4489,1400C4292,1400 4130,1398 4130,1397C4130,1375 4182,1244 4221,1165C4303,1000 4441,848 4613,731C4733,650 4969,554 5160,510C5534,423 6051,423 6420,511C7000,648 7343,963 7456,1465C7481,1573 7486,1861 7466,1987C7374,2568 6944,2933 6224,3041C6042,3068 5634,3076 5455,3055Z" style="fill:white;fill-rule:nonzero;"/>
        <path d="M9793,3050C9499,3004 9300,2936 8979,2774C8876,2722 8787,2680 8781,2680C8774,2680 8770,2735 8768,2843L8765,3005L8105,3005L8102,1757L8100,510L8770,510L8770,2071L8798,2097C8856,2151 9041,2266 9175,2330C9448,2463 9672,2522 9900,2522C10057,2521 10121,2511 10208,2470C10293,2430 10353,2379 10394,2311C10476,2176 10480,2131 10480,1258L10480,510L11151,510L11148,1443L11145,2375L11122,2448C11018,2788 10723,3007 10300,3059C10173,3075 9923,3071 9793,3050Z" style="fill:white;fill-rule:nonzero;"/>
        <path d="M12895,3035C12610,3012 12453,2991 12260,2950C12049,2906 11986,2889 11978,2876C11974,2870 11970,2741 11970,2590C11970,2439 11974,2310 11978,2304C11983,2297 12024,2306 12105,2332C12575,2484 13055,2546 13488,2511C13856,2482 14014,2394 14036,2206C14045,2134 14040,2130 13943,2130C13903,2130 13827,2126 13773,2121C13719,2116 13617,2106 13545,2100C13095,2062 12831,2024 12582,1964C12404,1921 12294,1882 12165,1819C11862,1671 11727,1456 11743,1146C11751,980 11782,894 11876,779C11998,629 12206,531 12505,484C12674,457 13023,460 13195,489C13526,545 13766,617 13971,720C14014,742 14032,747 14035,738C14038,731 14041,678 14042,620L14045,515L14710,515L14710,1397C14710,2382 14712,2347 14640,2495C14619,2539 14580,2601 14555,2633C14490,2715 14362,2813 14245,2869C14084,2947 14034,2963 13775,3014C13759,3018 13673,3027 13585,3035C13396,3052 13117,3052 12895,3035ZM14038,1483L14040,1321L13998,1292C13836,1182 13561,1075 13325,1030C12915,953 12541,992 12449,1121C12403,1186 12411,1287 12468,1349C12611,1506 12988,1589 13780,1639C13854,1643 13942,1647 13975,1646L14035,1645L14038,1483Z" style="fill:white;fill-rule:nonzero;"/>
        <path d="M563,2998C566,2991 849,2429 1193,1750L1818,515L2211,512L2605,510L3075,1432C3334,1939 3620,2502 3712,2682L3879,3010L3125,3010L2676,2077C2429,1565 2224,1142 2221,1138C2218,1134 2012,1553 1763,2068L1311,3005L934,3008C634,3010 559,3008 563,2998Z" style="fill:white;fill-rule:nonzero;"/>
        <path d="M15484,2996C15481,2988 15481,2578 15483,2084C15487,1121 15487,1123 15539,976C15633,711 15891,560 16320,521C16389,514 16743,510 17213,510L17990,510L17990,1070L17271,1070C16688,1070 16538,1073 16477,1084C16312,1116 16232,1190 16183,1357C16168,1409 16165,1497 16162,2213L16159,3010L15824,3010C15547,3010 15488,3008 15484,2996Z" style="fill:white;fill-rule:nonzero;"/>
        <path d="M4090,1870L4090,1670L4770,1670L4770,1754C4770,1800 4773,1845 4776,1854C4782,1868 4748,1870 4436,1870L4090,1870Z" style="fill:white;fill-rule:nonzero;"/>
    </g>
</svg>