<?xml version="1.0" encoding="UTF-8"?>
<svg xmlns="http://www.w3.org/2000/svg" xmlns:xlink="http://www.w3.org/1999/xlink" xmlns:serif="http://www.serif.com/" width="100%" height="100%" viewBox="0 0 837 289" version="1.1" xml:space="preserve" style="fill-rule:evenodd;clip-rule:evenodd;stroke-linejoin:round;stroke-miterlimit:2;">
  <g id="Artboard1" transform="matrix(1,0,0,1,-0.113489,3.24577)"><rect x="0.113" y="-3.246" width="836.383" height="288.467" style="fill:none;"></rect>
                  <g transform="matrix(4.16667,0,0,4.16667,240.741,140.76)">
                    <path d="M0,1.625c0,-3.657 -1.168,-4.52 -3.504,-4.52c-2.133,0 -3.961,0.914 -5.231,2.133l0,11.173c1.27,1.218 3.098,2.132 5.231,2.132c2.336,0 3.504,-0.863 3.504,-4.519l-0,-6.399Zm-10.614,15.896l-5.028,0l0,-34.026l6.907,0l0,10.207c2.488,-1.574 4.571,-2.183 6.602,-2.183c5.434,0 9.04,1.828 9.04,10.563l0,5.484c0,8.787 -3.86,10.564 -8.989,10.564c-2.032,0 -4.469,-0.609 -7.364,-2.793l-1.168,2.184Z" style="fill-rule:nonzero;"></path></g><g transform="matrix(4.16667,0,0,4.16667,310.567,152.186)"><path d="M0,4.164c0,4.469 1.219,5.637 4.469,5.637c3.25,0 4.418,-1.168 4.418,-5.637l0,-4.164c0,-4.469 -1.168,-5.637 -4.418,-5.637c-3.25,0 -4.469,1.168 -4.469,5.637l0,4.164Zm15.794,-0.508c-0,9.142 -3.859,11.732 -11.325,11.732c-7.618,-0 -11.376,-2.59 -11.376,-11.732l0,-3.148c0,-9.091 3.86,-11.732 11.376,-11.732c7.415,0 11.325,2.641 11.325,11.732l-0,3.148Z" style="fill-rule:nonzero;"></path></g><g transform="matrix(4.16667,0,0,4.16667,447.261,188.371)"><path d="M0,-13.814c-2.336,0 -4.723,0.711 -6.247,1.93l0,17.978l-6.906,-0l0,-25.393l4.875,0l1.117,1.879c2.133,-1.676 4.622,-2.488 7.161,-2.488l0,6.094Z" style="fill-rule:nonzero;"></path></g><g transform="matrix(4.16667,0,0,4.16667,516.241,188.371)"><path d="M0,-13.814c-2.336,0 -4.723,0.711 -6.247,1.93l0,17.978l-6.906,-0l0,-25.393l4.875,0l1.117,1.879c2.133,-1.676 4.622,-2.488 7.161,-2.488l0,6.094Z" style="fill-rule:nonzero;"></path></g><g transform="matrix(4.16667,0,0,4.16667,590.961,170.381)"><path d="M0,-4.57c0,-4.469 -1.422,-5.434 -4.164,-5.434c-3.454,0 -4.419,1.422 -4.419,5.434l8.583,0Zm5.637,9.141l-0,5.536c-2.895,0.508 -6.145,0.914 -9.7,0.914c-7.516,0 -11.427,-2.488 -11.427,-11.782l0,-3.098c0,-9.142 3.759,-11.732 11.376,-11.732c7.212,0 10.919,2.489 10.919,11.783l0,3.808l-15.388,0c0,3.505 0.813,5.434 4.469,5.434c4.622,0 6.552,-0.355 9.751,-0.863" style="fill-rule:nonzero;"></path></g><g transform="matrix(4.16667,0,0,4.16667,698.243,222.226)"><path d="M0,-20.822c-1.27,-0.965 -3.25,-1.625 -5.129,-1.625c-2.641,-0 -3.606,1.219 -3.606,5.028l0,4.773c0,3.809 0.965,5.028 3.606,5.028c1.879,-0 3.808,-0.66 5.129,-1.625l-0,-11.579Zm6.907,18.943c-0,6.653 -3.454,9.09 -11.173,9.09c-2.082,-0 -5.637,-0.304 -8.176,-0.965l0,-5.688c2.691,0.711 5.434,1.067 8.074,1.067c3.047,-0 4.368,-0.914 4.368,-3.504l0,-2.336c-2.489,1.574 -4.571,2.184 -6.602,2.184c-5.434,-0 -9.04,-1.829 -9.04,-10.564l0,-4.875c0,-8.786 3.86,-10.563 8.989,-10.563c2.031,-0 4.469,0.609 7.364,2.793l1.168,-2.184l5.028,-0l0,25.545Z" style="fill-rule:nonzero;"></path></g><g transform="matrix(4.16667,0,0,4.16667,768.915,152.186)"><path d="M0,4.164c0,4.469 1.219,5.637 4.469,5.637c3.25,0 4.418,-1.168 4.418,-5.637l0,-4.164c0,-4.469 -1.168,-5.637 -4.418,-5.637c-3.25,0 -4.469,1.168 -4.469,5.637l0,4.164Zm15.794,-0.508c-0,9.142 -3.86,11.732 -11.325,11.732c-7.618,-0 -11.376,-2.59 -11.376,-11.732l0,-3.148c0,-9.091 3.86,-11.732 11.376,-11.732c7.415,0 11.325,2.641 11.325,11.732l-0,3.148Z" style="fill-rule:nonzero;"></path></g><g transform="matrix(-4.16667,0,0,4.16667,468.375,-28245.8)"><rect x="95.679" y="6837.59" width="1.547" height="9.291" style="fill:#2BCC70;"></rect></g><g transform="matrix(4.16667,0,0,4.16667,63.2657,153.835)"><path d="M0,-8.742l-9.236,-5.686l-3.188,7.443c-0.616,1.283 -1.105,2.666 -1.465,4.121l13.889,8.55l0,-14.428Z" style="fill:#2BCC70;fill-rule:nonzero;"></path></g><g transform="matrix(4.16667,0,0,4.16667,69.714,120.627)"><path d="M0,20.826l14.531,-8.946c0.021,-0.401 0.035,-0.804 0.035,-1.213c0,-3.536 -0.782,-6.847 -2.142,-9.682l-0.422,-0.985l-12.002,7.388l0,13.438Z" style="fill:#2BCC70;fill-rule:nonzero;"></path></g><g transform="matrix(4.16667,0,0,4.16667,69.714,80.0467)"><path d="M0,-18.278l0,18.278l6.196,-3.814l-6.196,-14.464Z" style="fill:#2BCC70;fill-rule:nonzero;"></path></g><g transform="matrix(-3.54823,-2.1843,-2.1843,3.54823,1.17612,190.033)"><path d="M-12.069,-8.821l16.711,0c-0.483,1.201 -1.076,2.389 -1.788,3.544c-5.33,8.659 -15.178,12.345 -22.348,8.518l7.425,-12.062Z" style="fill:#2BCC70;fill-rule:nonzero;"></path></g><g transform="matrix(4.16667,0,0,4.16667,69.714,207.297)"><path d="M0,1.842l0,6.994c7.259,-0.447 13.186,-7.142 14.354,-15.83l-14.354,8.836Z" style="fill:#2BCC70;fill-rule:nonzero;"></path></g><g transform="matrix(3.54827,-2.18424,-2.18424,-3.54827,92.551,150.806)"><path d="M-3.791,4.297l13.37,-0l1.703,11.491l-8,-0.001l-7.073,-11.49Z" style="fill:#2BCC70;fill-rule:nonzero;"></path></g><g transform="matrix(4.16667,0,0,4.16667,63.2657,3.88708)"><path d="M0,25.428l0,-25.428l-8.62,20.121l8.62,5.307Z" style="fill:#2BCC70;fill-rule:nonzero;"></path></g></g>
</svg>
