<?xml version="1.0" encoding="UTF-8"?> <svg xmlns="http://www.w3.org/2000/svg" width="100" height="24" viewBox="0 0 100 24" fill="none"><path d="M16.1798 5.93941H2.35528L1.36538 11.4009H15.1899L16.1798 5.93941ZM14.8144 13.6879H0.989901L0 19.1495H13.8245L14.8144 13.6879Z" fill="#F12A30"></path><path d="M20.2471 0L19.1548 6.21248H24.9235L22.0221 22.6995H29.1221L32.0235 6.21248H38.0312L39.1235 0H20.2471Z" fill="#F12A30"></path><path d="M46.0888 14.3365H46.396C47.1128 14.3365 47.5907 14.5413 47.7614 15.2581L49.434 22.6995H57.0801L54.8272 14.2C54.5542 13.2101 54.2469 12.5274 53.5984 12.1519C56.1926 11.1279 58.1383 8.90911 58.1383 5.7346C58.1383 1.70673 55.032 0 49.9801 0H41.5148L37.521 22.6995H44.621L46.0888 14.3365ZM46.9763 9.42113L47.659 5.49566H48.9561C50.1167 5.49566 50.697 5.90527 50.697 6.89517C50.697 8.43123 49.7753 9.42113 48.3417 9.42113H46.9763Z" fill="#F12A30"></path><path d="M62.1894 0L59.6293 14.7461C59.4927 15.4971 59.4245 16.1798 59.4245 16.8283C59.4245 20.9586 62.087 23.1773 68.0264 23.1773C74.0682 23.1773 77.2427 20.5148 78.1302 15.4629L80.8609 0H73.7951L71.2009 14.7461C70.9278 16.3846 70.0744 17.2038 68.5725 17.2038C67.4119 17.2038 66.5927 16.7259 66.6269 15.3264C66.6269 15.0875 66.661 14.8485 66.6951 14.5754L69.2552 0H62.1894Z" fill="#F12A30"></path><path d="M80.3385 22.6995H96.2452L97.3375 16.487H88.5308L88.9404 14.2H96.2794L97.3717 8.05575H90.0327L90.3399 6.21248H98.9077L100 0H84.3323L80.3385 22.6995Z" fill="#F12A30"></path></svg> 