<svg width="117" height="15" viewBox="0 0 117 15" fill="none" xmlns="http://www.w3.org/2000/svg">
<path d="M0 15V0H9V3H3V6H9V9H3V15H0Z" fill="black"/>
<path d="M12.36 15V0H21.36V3H24.36V6H21.36V12H24.36V15H21.36V12H18.36V9H15.36V15H12.36ZM15.36 6H21.24V3H15.36V6Z" fill="black"/>
<path d="M27.72 15V0H36.72V3H30.72V6H36.72V9H30.72V12H36.72V15H27.72Z" fill="black"/>
<path d="M40.08 15V0H43.08V15H40.08Z" fill="black"/>
<path d="M49.44 3V0H58.44V3H49.44ZM46.44 12V3H49.44V12H46.44ZM55.44 12V9H52.44V6H58.44V12H55.44ZM49.44 15V12H55.44V15H49.44Z" fill="black"/>
<path d="M61.8 15V0H64.8V6H70.8V0H73.8V15H70.8V9H64.8V15H61.8Z" fill="black"/>
<path d="M80.16 15V3H77.16V0H86.16V3H83.16V15H80.16Z" fill="black"/>
<path d="M92.52 15V12H98.52V9H92.52V6H89.52V3H92.52V0H98.52V3H101.52V12H98.52V15H92.52ZM92.52 5.88H98.52V3.12H92.52V5.88Z" fill="black"/>
<path d="M107.88 15V12H113.88V9H107.88V6H104.88V3H107.88V0H113.88V3H116.88V12H113.88V15H107.88ZM107.88 5.88H113.88V3.12H107.88V5.88Z" fill="black"/>
</svg>
