<svg width="223" height="39" viewBox="0 0 223 39" fill="none" xmlns="http://www.w3.org/2000/svg">
<mask id="mask0" mask-type="alpha" maskUnits="userSpaceOnUse" x="85" y="0" width="32" height="39">
<path fill-rule="evenodd" clip-rule="evenodd" d="M95.9065 0C94.0042 3.99386 96.7512 6.72803 96.4785 11.987C95.791 9.95768 94.2211 8.55244 92.9595 8.08257C94.2655 15.9133 86.6622 17.9171 85.322 25.0566C84.1505 31.3001 87.2314 36.8442 96.3088 39C94.0649 36.9793 93.3607 34.4534 93.8302 31.8599C94.8488 26.2248 100.921 24.2984 102.154 18.9947C102.164 18.9511 102.172 18.908 102.181 18.8644C105.421 21.7087 107.152 27.8333 104.013 32.2643C105.608 31.861 106.917 31.1218 107.975 30.1674C108.385 32.4791 108.447 36.0876 105.369 39C118.082 36.2718 117.026 24.1981 114.614 21.2176C114.378 22.879 113.21 25.1199 110.568 26.4324C111.796 23.5118 111.898 20.1209 111.211 17.5938C108.166 6.39879 97.5817 6.60048 95.9065 0Z" fill="white"/>
</mask>
<g mask="url(#mask0)">
<path fill-rule="evenodd" clip-rule="evenodd" d="M95.9065 0C94.0042 3.99386 96.7512 6.72803 96.4785 11.987C95.791 9.95768 94.2211 8.55244 92.9595 8.08257C94.2655 15.9133 86.6622 17.9171 85.322 25.0566C84.1505 31.3001 87.2314 36.8442 96.3088 39C94.0649 36.9793 93.3607 34.4534 93.8302 31.8599C94.8488 26.2248 100.921 24.2984 102.154 18.9947C102.164 18.9511 102.172 18.908 102.181 18.8644C105.421 21.7087 107.152 27.8333 104.013 32.2643C105.608 31.861 106.917 31.1218 107.975 30.1674C108.385 32.4791 108.447 36.0876 105.369 39C118.082 36.2718 117.026 24.1981 114.614 21.2176C114.378 22.879 113.21 25.1199 110.568 26.4324C111.796 23.5118 111.898 20.1209 111.211 17.5938C108.166 6.39879 97.5817 6.60048 95.9065 0Z" fill="url(#paint0_linear)"/>
</g>
<mask id="mask1" mask-type="alpha" maskUnits="userSpaceOnUse" x="0" y="7" width="11" height="32">
<path fill-rule="evenodd" clip-rule="evenodd" d="M0 7.20581H10.0731V38.3369H0V7.20581Z" fill="white"/>
</mask>
<g mask="url(#mask1)">
<path fill-rule="evenodd" clip-rule="evenodd" d="M-0.000244141 32.5671V7.20581H6.60503V31.5293C6.60503 32.1938 6.93518 32.5257 7.59603 32.5257H10.073V38.3369H5.73817C1.81642 38.3369 -0.000244141 36.5103 -0.000244141 32.5671Z" fill="#020303"/>
</g>
<mask id="mask2" mask-type="alpha" maskUnits="userSpaceOnUse" x="11" y="15" width="22" height="24">
<path fill-rule="evenodd" clip-rule="evenodd" d="M11.5182 15.9221H32.9848V39H11.5182V15.9221Z" fill="white"/>
</mask>
<g mask="url(#mask2)">
<path fill-rule="evenodd" clip-rule="evenodd" d="M17.834 25.3854H26.6685C26.173 22.8534 24.6458 21.4836 22.2512 21.4836C19.8567 21.4836 18.3295 22.8534 17.834 25.3854ZM32.9848 29.1214H17.7516C18.2059 31.9438 19.9396 33.4379 22.7055 33.4379C24.6458 33.4379 26.0494 32.6492 26.6273 31.1965H32.737C31.9938 35.887 27.8655 39 22.4578 39C15.8937 39 11.5182 34.3924 11.5182 27.461C11.5182 20.5291 15.8113 15.9221 22.2512 15.9221C28.6911 15.9221 32.9848 20.5291 32.9848 27.461V29.1214Z" fill="#020303"/>
</g>
<mask id="mask3" mask-type="alpha" maskUnits="userSpaceOnUse" x="35" y="15" width="20" height="24">
<path fill-rule="evenodd" clip-rule="evenodd" d="M35.0493 15.9222H54.6586V39H35.0493V15.9222Z" fill="white"/>
</mask>
<g mask="url(#mask3)">
<path fill-rule="evenodd" clip-rule="evenodd" d="M48.0533 29.0381V28.9552C43.3883 29.0381 41.2827 29.9511 41.2827 31.8191C41.2827 33.1061 42.2325 33.8114 43.9662 33.8114C46.608 33.8114 48.0533 32.1097 48.0533 29.0381ZM54.6586 24.8873V38.3362H48.4659V35.4718H48.0533C46.7733 37.7546 44.5859 39.0001 41.4892 39.0001C37.4439 39.0001 35.0493 36.883 35.0493 33.0232C35.0493 28.0836 39.0123 25.6765 48.0533 25.5517V24.4724C48.0533 22.563 47.0211 21.5251 45.0808 21.5251C43.3471 21.5251 42.1495 22.3553 42.0671 24.0571H35.4619C36.1227 18.6612 40.0033 15.9222 45.5346 15.9222C51.5208 15.9222 54.6586 19.1175 54.6586 24.8873Z" fill="#020303"/>
</g>
<path fill-rule="evenodd" clip-rule="evenodd" d="M72.9879 27.4608C72.9879 24.265 71.2542 22.1479 68.6119 22.1479C66.0113 22.1479 64.2776 24.265 64.2776 27.4608C64.2776 30.6567 66.0113 32.7738 68.6119 32.7738C71.2542 32.7738 72.9879 30.6567 72.9879 27.4608ZM79.5932 7.20483V38.3359H72.9879V35.9283H72.6989C71.5014 37.7963 69.5205 38.9998 66.754 38.9998C61.3875 38.9998 57.5487 34.3928 57.5487 27.4609C57.4657 20.529 61.3463 15.9219 66.754 15.9219C69.4375 15.9219 71.3778 17.0426 72.5753 18.8272H72.9879V7.20483H79.5932Z" fill="#020303"/>
<path fill-rule="evenodd" clip-rule="evenodd" d="M131.105 14.0126V16.5859H135.852V22.3971H131.105V38.336H124.499V22.3971H120.784V16.5859H124.499V12.9747C124.499 9.03155 126.316 7.20496 130.237 7.20496H135.852V13.0161H132.096C131.435 13.0161 131.105 13.3481 131.105 14.0126Z" fill="#020303"/>
<mask id="mask4" mask-type="alpha" maskUnits="userSpaceOnUse" x="137" y="15" width="22" height="24">
<path fill-rule="evenodd" clip-rule="evenodd" d="M137.297 15.9221H158.764V39H137.297V15.9221Z" fill="white"/>
</mask>
<g mask="url(#mask4)">
<path fill-rule="evenodd" clip-rule="evenodd" d="M143.614 25.3854H152.448C151.952 22.8534 150.425 21.4836 148.03 21.4836C145.636 21.4836 144.109 22.8534 143.614 25.3854ZM158.764 29.1214H143.531C143.985 31.9438 145.719 33.4379 148.485 33.4379C150.425 33.4379 151.829 32.6492 152.406 31.1965H158.517C157.773 35.887 153.645 39 148.237 39C141.673 39 137.297 34.3924 137.297 27.461C137.297 20.5291 141.591 15.9221 148.03 15.9221C154.471 15.9221 158.764 20.5291 158.764 27.461V29.1214Z" fill="#020303"/>
</g>
<path fill-rule="evenodd" clip-rule="evenodd" d="M175.03 16.586V23.6422H171.48C168.921 23.6422 168.466 24.5138 168.466 27.6687V38.3361H161.861V16.586H168.053V20.5706H168.466C169.044 18.1635 171.026 16.586 173.462 16.586H175.03Z" fill="#020303"/>
<path fill-rule="evenodd" clip-rule="evenodd" d="M197.941 23.6421V38.336H191.336V26.3403C191.336 24.0574 189.933 22.5214 187.827 22.5214C185.722 22.5214 184.318 24.0574 184.318 26.3403V38.336H177.713V16.5859H183.905V19.4504H184.318C185.474 17.2918 187.786 15.922 190.387 15.922C194.928 15.922 197.941 18.9936 197.941 23.6421Z" fill="#020303"/>
<mask id="mask5" mask-type="alpha" maskUnits="userSpaceOnUse" x="200" y="15" width="23" height="24">
<path fill-rule="evenodd" clip-rule="evenodd" d="M200.832 15.9219H223V38.9998H200.832V15.9219Z" fill="white"/>
</mask>
<g mask="url(#mask5)">
<path fill-rule="evenodd" clip-rule="evenodd" d="M216.271 27.4608C216.271 24.265 214.537 22.1479 211.937 22.1479C209.295 22.1479 207.561 24.265 207.561 27.4608C207.561 30.6567 209.295 32.7738 211.937 32.7738C214.537 32.7738 216.271 30.6567 216.271 27.4608ZM200.832 27.4609C200.832 20.529 205.29 15.9219 211.937 15.9219C218.583 15.9219 223.001 20.529 223.001 27.4609C223.001 34.3927 218.583 38.9998 211.937 38.9998C205.29 38.9998 200.832 34.3927 200.832 27.4609Z" fill="#020303"/>
</g>
<defs>
<linearGradient id="paint0_linear" x1="116.962" y1="39.7073" x2="116.962" y2="-1.41699" gradientUnits="userSpaceOnUse">
<stop stop-color="#F05236"/>
<stop offset="1" stop-color="#F5803B"/>
</linearGradient>
</defs>
</svg>
