<svg id="logo-white" xmlns="http://www.w3.org/2000/svg" width="1000" height="303.412" viewBox="0 0 1000 303.412">
  <path id="Subtraction_11" data-name="Subtraction 11" d="M-19915.99,10931.409h-.016V10687.54h42.371v15.441a98.877,98.877,0,0,1,13.223-8.9,86.68,86.68,0,0,1,13.791-6.291,87.21,87.21,0,0,1,14.691-3.723,95.8,95.8,0,0,1,15.746-1.232,104.641,104.641,0,0,1,16.979,1.354,94.821,94.821,0,0,1,15.938,4.09,87.317,87.317,0,0,1,14.7,6.809,85,85,0,0,1,13.033,9.428,102.454,102.454,0,0,1,14.75,15.748,97.04,97.04,0,0,1,10.848,18.359,97.772,97.772,0,0,1,6.779,20.291,105.054,105.054,0,0,1,2.238,21.559,99.484,99.484,0,0,1-2.027,20.211,98.446,98.446,0,0,1-6.15,19.277,94.862,94.862,0,0,1-9.82,17.521,92.932,92.932,0,0,1-13.264,14.916,87.509,87.509,0,0,1-13.68,10.67,90.274,90.274,0,0,1-15.445,7.822,95.241,95.241,0,0,1-16.809,4.779,97.374,97.374,0,0,1-17.732,1.59,112.786,112.786,0,0,1-16.742-1.18,87.631,87.631,0,0,1-14.922-3.59,78.8,78.8,0,0,1-13.541-6.127,84.9,84.9,0,0,1-12.578-8.764v55.5Zm95.088-205.891a52.943,52.943,0,0,0-10.2.971,45.51,45.51,0,0,0-9.4,2.91,46.98,46.98,0,0,0-8.635,4.857,53.309,53.309,0,0,0-7.881,6.8,55.012,55.012,0,0,0-6.533,8.223,50.735,50.735,0,0,0-4.684,9.072,53.136,53.136,0,0,0-2.795,9.953,54.981,54.981,0,0,0-.891,10.818,63.281,63.281,0,0,0,.891,11.352,61.659,61.659,0,0,0,2.865,10.381,52.8,52.8,0,0,0,4.8,9.412,54.771,54.771,0,0,0,6.674,8.432,54.53,54.53,0,0,0,8.092,6.947,50.3,50.3,0,0,0,9.018,4.98,49.135,49.135,0,0,0,9.922,2.955,56.189,56.189,0,0,0,10.764,1,54.471,54.471,0,0,0,10.713-1.014,49.773,49.773,0,0,0,9.852-3.006,47.8,47.8,0,0,0,9.068-5.053,58.656,58.656,0,0,0,8.264-7.061,59.105,59.105,0,0,0,6.885-8.467,53.661,53.661,0,0,0,4.912-9.271,52.782,52.782,0,0,0,2.934-10.066,56.343,56.343,0,0,0,1-10.846,60.1,60.1,0,0,0-1-11.186,53.592,53.592,0,0,0-2.953-10.215,48.752,48.752,0,0,0-4.963-9.193,52.2,52.2,0,0,0-6.916-8.24,54.124,54.124,0,0,0-8.389-6.764,53.069,53.069,0,0,0-9.42-4.814,56.587,56.587,0,0,0-10.5-2.91A65.667,65.667,0,0,0-19820.9,10725.519Zm646.352,151.736a103.591,103.591,0,0,1-19.85-1.834,88.86,88.86,0,0,1-18.207-5.471,90.1,90.1,0,0,1-16.5-9.053,97.163,97.163,0,0,1-14.676-12.549,96.944,96.944,0,0,1-11.637-14.682,101.188,101.188,0,0,1-8.682-16.82,99.232,99.232,0,0,1-5.4-18.125,96.183,96.183,0,0,1-1.8-18.6,99.406,99.406,0,0,1,1.625-18.752,98.459,98.459,0,0,1,4.963-17.617,93.712,93.712,0,0,1,8.229-16.211,95.048,95.048,0,0,1,11.355-14.471,106.357,106.357,0,0,1,15.027-13.23,99.343,99.343,0,0,1,16.9-9.787,90.545,90.545,0,0,1,18.1-6.047,86.135,86.135,0,0,1,18.693-2.02,98.2,98.2,0,0,1,23.205,2.736,96.058,96.058,0,0,1,21.684,8.188,100.929,100.929,0,0,1,19.236,13.152,107.645,107.645,0,0,1,16.184,17.607,83.218,83.218,0,0,1,7.756,12.627,84.925,84.925,0,0,1,5.436,14.088,98.667,98.667,0,0,1,3.2,15.887,144.5,144.5,0,0,1,1.066,18.053c0,1.041-.016,2.588-.141,4.615-.121,2.148-.191,3.678-.191,4.639h-148.01a52.089,52.089,0,0,0,5.064,17.879,43.3,43.3,0,0,0,10.818,13.633,46.872,46.872,0,0,0,15.688,8.617,62.687,62.687,0,0,0,19.674,2.893,61.522,61.522,0,0,0,13.752-1.521,51.967,51.967,0,0,0,12.215-4.518,49.138,49.138,0,0,0,10.311-7.287,47.648,47.648,0,0,0,7.947-9.709h46.355a123.623,123.623,0,0,1-6.641,14.295,103.153,103.153,0,0,1-8.037,12.584,91.661,91.661,0,0,1-9.574,10.871,88.868,88.868,0,0,1-10.955,9.219,86.815,86.815,0,0,1-12.2,7.314,84.81,84.81,0,0,1-13.088,5.217,91.354,91.354,0,0,1-14,3.146A104.965,104.965,0,0,1-19174.551,10877.255Zm-1.855-155.607a50.186,50.186,0,0,0-16.248,2.6,50.433,50.433,0,0,0-14.486,7.822,50.822,50.822,0,0,0-11.391,12.051,52.538,52.538,0,0,0-6.936,15.336H-19125a61.545,61.545,0,0,0-7.408-16.281,47.5,47.5,0,0,0-11.131-11.883,46.744,46.744,0,0,0-14.746-7.236A63.979,63.979,0,0,0-19176.406,10721.647Zm-429.777,155.607a102.651,102.651,0,0,1-19.9-1.852,87.213,87.213,0,0,1-18.047-5.541,90.957,90.957,0,0,1-16.426-9.236,104.613,104.613,0,0,1-14.836-12.934,105.239,105.239,0,0,1-11.809-15.2,97.728,97.728,0,0,1-8.51-16.646,95.444,95.444,0,0,1-5.154-17.881,100.416,100.416,0,0,1-1.746-18.848,101.991,101.991,0,0,1,1.781-19.008,98.521,98.521,0,0,1,5.346-18.062,93.7,93.7,0,0,1,8.771-16.551,95.5,95.5,0,0,1,12-14.6,104.2,104.2,0,0,1,14.8-12.34,97.79,97.79,0,0,1,16.617-9.088,92.636,92.636,0,0,1,17.789-5.609,91.29,91.29,0,0,1,18.486-1.879,109.728,109.728,0,0,1,19.219,1.66,95.457,95.457,0,0,1,17.668,4.98,93.688,93.688,0,0,1,16.193,8.3,104.421,104.421,0,0,1,14.8,11.613,101.715,101.715,0,0,1,12.824,15.021,102.529,102.529,0,0,1,9.521,17.154,100.2,100.2,0,0,1,5.939,18.473,92.827,92.827,0,0,1,1.961,18.92,117.35,117.35,0,0,1-1.75,20.264,96.636,96.636,0,0,1-5.135,18.4,93.105,93.105,0,0,1-8.631,16.639,98.069,98.069,0,0,1-12.061,14.951,94.707,94.707,0,0,1-14.746,12.531,90.669,90.669,0,0,1-16.652,9.07,94.245,94.245,0,0,1-18.4,5.461A105.081,105.081,0,0,1-19606.184,10877.255Zm.332-152.924a63.414,63.414,0,0,0-11.059.943,55.526,55.526,0,0,0-9.959,2.848,48.837,48.837,0,0,0-8.928,4.771,50.433,50.433,0,0,0-7.846,6.65,49.51,49.51,0,0,0-6.377,8.154,49.321,49.321,0,0,0-4.576,9.262,54.338,54.338,0,0,0-2.746,10.355,69.982,69.982,0,0,0-.926,11.482,70.213,70.213,0,0,0,3.531,23.035,51.34,51.34,0,0,0,4.4,9.516,46.969,46.969,0,0,0,6.205,8.189,45.266,45.266,0,0,0,7.67,6.58,46.151,46.151,0,0,0,8.943,4.7,51.936,51.936,0,0,0,10.24,2.813,65.587,65.587,0,0,0,11.426.936,63.972,63.972,0,0,0,11.342-.953,51.708,51.708,0,0,0,10.117-2.883,44.976,44.976,0,0,0,8.893-4.807,46.277,46.277,0,0,0,7.705-6.729,49.106,49.106,0,0,0,6.221-8.346,51.479,51.479,0,0,0,4.438-9.7,72.149,72.149,0,0,0,3.564-23.367,66.394,66.394,0,0,0-.939-11.158,56.365,56.365,0,0,0-2.781-10.129,52.9,52.9,0,0,0-4.631-9.08,51.239,51.239,0,0,0-6.551-8.047,51.487,51.487,0,0,0-7.881-6.59,49.413,49.413,0,0,0-8.859-4.684,51.483,51.483,0,0,0-9.854-2.832A60.88,60.88,0,0,0-19605.852,10724.331Zm688.322,148.057h-45.707l-58.115-93.355,40.127-8.707,63.715,102.063Zm-391.928,0h-43.021v-146.545h-28.219v-38.311h28.219v-40.924l43.021-18.611v59.535h28.375v38.311h-28.375Zm-131.084,0h-43v-184.855h40.342v21.348a74.1,74.1,0,0,1,10.205-10.773,54.842,54.842,0,0,1,11.148-7.463,53.421,53.421,0,0,1,12.318-4.344,63.886,63.886,0,0,1,13.855-1.441V10725a79.379,79.379,0,0,0-21.213,4.291,39.509,39.509,0,0,0-7.791,3.836,29.712,29.712,0,0,0-5.926,4.99,27.89,27.89,0,0,0-4.33,6.658,49.245,49.245,0,0,0-3.113,8.9,103.914,103.914,0,0,0-2.479,24.434v94.279Zm472.238-107.291h0l-12,17.3-41.795-4.912,56.881-89.945h49.207Z" transform="translate(19916.006 -10627.997)" fill="#fff"/>
  <path id="Path_50" data-name="Path 50" d="M21572.5-6327.805h45.7l55.754,89.82-63.809,95.783h-45.512l63.531-95.783Z" transform="translate(-20734.736 6387.397)" fill="#fff"/>
</svg>
