<?xml version="1.0" encoding="UTF-8"?> <svg xmlns="http://www.w3.org/2000/svg" id="Layer_1" data-name="Layer 1" version="1.1" viewBox="0 0 229.23 112.08"><defs><style> .cls-1 { fill: #f05a2a; } .cls-1, .cls-2 { stroke-width: 0px; } .cls-2 { fill: #f15b2b; } </style></defs><g><g><path class="cls-2" d="M76.21,112.03h-7.94v-33.72h7.94v2.5c1.7-2.13,4.01-3.2,6.93-3.2,1.61,0,3.11.31,4.49.94,1.39.63,2.59,1.48,3.62,2.56,1.02,1.08,1.82,2.35,2.39,3.82s.85,3.03.85,4.69-.28,3.22-.85,4.65c-.57,1.43-1.36,2.69-2.37,3.77-1.01,1.08-2.2,1.93-3.57,2.54-1.37.61-2.86.92-4.47.92-2.81,0-5.15-.97-7.02-2.89v13.42ZM88.21,89.63c0-.7-.12-1.37-.37-1.99-.25-.63-.61-1.18-1.07-1.65-.47-.47-1.02-.84-1.65-1.12-.63-.28-1.31-.42-2.04-.42s-1.36.13-1.97.4c-.61.26-1.15.63-1.6,1.09-.45.47-.82,1.02-1.1,1.65-.28.63-.42,1.29-.42,2s.13,1.36.39,1.97c.26.61.63,1.15,1.1,1.6.47.45,1.02.82,1.64,1.1.63.28,1.29.42,1.99.42s1.36-.13,1.97-.39c.61-.26,1.15-.63,1.6-1.1.45-.47.82-1.01,1.1-1.62s.42-1.26.42-1.93"></path><polygon class="cls-2" points="115.32 78.57 115.34 78.59 97.56 112.08 106.4 112.08 124.35 78.58 124.35 78.57 115.32 78.57"></polygon><polygon class="cls-2" points="103.53 78.57 94.38 78.57 103.74 95.31 108.04 87.23 103.53 78.57"></polygon><polygon class="cls-2" points="133.24 78.57 124.35 78.57 124.35 78.58 133.22 95.81 137.24 87.21 133.24 78.57"></polygon><polygon class="cls-2" points="139.95 87.07 134.61 98.51 135.85 100.93 141.13 100.93 152.76 78.57 143.96 78.57 139.95 87.07"></polygon><path class="cls-2" d="M175.49,81.12c-1.21-1.06-2.63-1.89-4.27-2.48-1.64-.6-3.42-.89-5.34-.89s-3.74.31-5.38.92c-1.64.61-3.06,1.45-4.25,2.5-1.19,1.06-2.12,2.31-2.79,3.75s-1,2.98-1,4.64c0,1.83.33,3.49,1,4.99s1.59,2.78,2.77,3.85c1.18,1.08,2.58,1.9,4.21,2.48,1.63.58,3.4.87,5.32.87s3.75-.29,5.42-.87c1.67-.58,3.1-1.4,4.29-2.46,1.19-1.06,2.13-2.32,2.81-3.79.68-1.47,1.02-3.09,1.02-4.86s-.33-3.39-1-4.86c-.67-1.47-1.61-2.73-2.81-3.79M170.56,91.71c-.28.62-.64,1.17-1.09,1.63-.45.47-.99.83-1.61,1.09-.62.26-1.28.39-1.98.39s-1.36-.13-1.98-.39c-.62-.26-1.16-.62-1.61-1.09-.45-.47-.81-1.01-1.09-1.63-.28-.62-.41-1.31-.41-2.07,0-.7.14-1.35.41-1.96.28-.61.64-1.15,1.09-1.61.45-.46.99-.83,1.61-1.09.62-.26,1.28-.39,1.98-.39s1.36.13,1.98.39c.62.26,1.16.62,1.61,1.09.45.47.81,1.01,1.09,1.63.28.62.41,1.28.41,1.98s-.14,1.4-.41,2.03"></path><polygon class="cls-2" points="193.76 71.86 185.87 71.86 185.87 78.57 180.86 78.57 180.86 85.15 185.87 85.15 185.87 100.93 193.76 100.93 193.76 85.15 198.25 85.15 198.25 78.57 193.76 78.57 193.76 71.86"></polygon><polygon class="cls-2" points="213.19 78.57 213.19 71.86 205.3 71.86 205.3 78.57 200.29 78.57 200.29 85.15 205.3 85.15 205.3 100.93 213.19 100.93 213.19 85.15 217.67 85.15 217.67 78.57 213.19 78.57"></polygon></g><g><path class="cls-1" d="M225.29,98.9h-.88v1.76h-.78v-4.57h1.61c.25,0,.49.04.71.1.2.06.37.16.51.25.14.12.25.25.31.43s.12.37.12.59c0,.31-.08.57-.22.76-.16.2-.35.37-.61.47l1.02,1.9v.04h-.84l-.94-1.74ZM224.41,98.27h.82c.14,0,.27-.02.37-.06.1-.04.2-.1.27-.16s.12-.14.16-.24c.04-.1.06-.2.06-.31s-.02-.22-.06-.31c-.04-.1-.08-.18-.16-.24-.08-.06-.16-.12-.27-.16-.1-.04-.24-.06-.39-.06h-.8v1.53Z"></path><path class="cls-1" d="M225.09,102.48c-.56,0-1.1-.11-1.61-.33-.49-.21-.94-.51-1.32-.89-.38-.38-.68-.82-.89-1.32-.22-.51-.33-1.05-.33-1.61s.11-1.1.33-1.61c.21-.49.51-.94.89-1.32.38-.38.82-.68,1.32-.89.51-.22,1.05-.33,1.61-.33s1.1.11,1.61.33c.49.21.94.51,1.32.89.38.38.68.82.89,1.32.22.51.33,1.05.33,1.61s-.11,1.1-.33,1.61c-.21.49-.51.94-.89,1.32-.38.38-.82.68-1.32.89-.51.22-1.05.33-1.61.33ZM225.09,94.91c-.92,0-1.78.36-2.43,1.01-.65.65-1.01,1.51-1.01,2.43s.36,1.78,1.01,2.43c.65.65,1.51,1.01,2.43,1.01s1.78-.36,2.43-1.01c.65-.65,1.01-1.51,1.01-2.43s-.36-1.78-1.01-2.43c-.65-.65-1.51-1.01-2.43-1.01Z"></path></g></g><g><path class="cls-2" d="M34.1,33.27l-24.53,20.29c-1.57,1.29-2.44,3.05-2.44,4.88v27.14c0,1.7.82,3.34,2.27,4.54l24.7,20.43V33.27Z"></path><path class="cls-1" d="M0,15.73l34.34,9.99c3.53,1.03,6.29,3.78,7.31,7.31l9.99,34.34,15.89-28.22-7.58-26.04c-.78-2.67-2.87-4.76-5.54-5.54L28.38,0,0,15.73Z"></path></g></svg> 